<?xml version="1.0" encoding="utf-8"?>
<!-- Generator: Adobe Illustrator 22.0.0, SVG Export Plug-In . SVG Version: 6.00 Build 0)  -->
<svg version="1.1" id="Layer_1" xmlns="http://www.w3.org/2000/svg" xmlns:xlink="http://www.w3.org/1999/xlink" x="0px" y="0px"
	 viewBox="0 0 1280 800" style="enable-background:new 0 0 1280 800;" xml:space="preserve">
<style type="text/css">
	.st0{fill:#FFFFFF;}
</style>
<g>
	<path class="st0" d="M453.6-127.3c0,2.4-2.3,4.3-5,4.3l0,0c-2.8,0-5-1.9-5-4.3V-181c0-2.4,2.3-4.3,5-4.3l0,0c2.8,0,5,1.9,5,4.3
		V-127.3z"/>
	<path class="st0" d="M448.5-223.9c-22.3,0-40.3,18.1-40.3,40.3c0,16.6,10,30.8,24.3,37c3.9,0,6.2-6.8,3.9-9.1
		c-10.8-4.7-18.3-15.4-18.3-27.9c0-16.8,13.6-30.4,30.4-30.4c16.8,0,30.4,13.6,30.4,30.4c0,12.5-7.5,23.2-18.3,27.9
		c-1.9,1.9,2,9.1,4,9.1c14.3-6.2,24.3-20.4,24.3-37C488.8-205.9,470.8-223.9,448.5-223.9z"/>
</g>
</svg>
